<mxfile host="app.diagrams.net" agent="Mozilla/5.0 (Windows NT 10.0; Win64; x64) AppleWebKit/537.36 (KHTML, like Gecko) Chrome/133.0.0.0 Safari/537.36 OPR/118.0.0.0" version="26.3.0">
  <diagram name="Página-1" id="BdBBVRyl0jZNgx_eDENr">
    <mxGraphModel dx="998" dy="542" grid="1" gridSize="10" guides="1" tooltips="1" connect="1" arrows="1" fold="1" page="1" pageScale="1" pageWidth="827" pageHeight="1169" math="0" shadow="0">
      <root>
        <mxCell id="0" />
        <mxCell id="1" parent="0" />
        <mxCell id="yKijX8AcHDFfJOxy1OQt-7" style="edgeStyle=orthogonalEdgeStyle;rounded=0;orthogonalLoop=1;jettySize=auto;html=1;entryX=0;entryY=0.5;entryDx=0;entryDy=0;" edge="1" parent="1" source="yKijX8AcHDFfJOxy1OQt-2" target="yKijX8AcHDFfJOxy1OQt-1">
          <mxGeometry relative="1" as="geometry" />
        </mxCell>
        <mxCell id="yKijX8AcHDFfJOxy1OQt-12" value="Solicitud de Equipo" style="text;html=1;align=center;verticalAlign=middle;whiteSpace=wrap;rounded=0;" vertex="1" parent="1">
          <mxGeometry x="230" y="245" width="60" height="30" as="geometry" />
        </mxCell>
        <mxCell id="yKijX8AcHDFfJOxy1OQt-9" value="" style="edgeStyle=orthogonalEdgeStyle;rounded=0;orthogonalLoop=1;jettySize=auto;html=1;" edge="1" parent="1" source="yKijX8AcHDFfJOxy1OQt-1" target="yKijX8AcHDFfJOxy1OQt-3">
          <mxGeometry relative="1" as="geometry" />
        </mxCell>
        <mxCell id="yKijX8AcHDFfJOxy1OQt-1" value="Registro de Préstamos" style="swimlane;whiteSpace=wrap;html=1;" vertex="1" parent="1">
          <mxGeometry x="310" y="180" width="200" height="200" as="geometry" />
        </mxCell>
        <mxCell id="yKijX8AcHDFfJOxy1OQt-2" value="Estudiante" style="rounded=0;whiteSpace=wrap;html=1;" vertex="1" parent="1">
          <mxGeometry x="80" y="250" width="120" height="60" as="geometry" />
        </mxCell>
        <mxCell id="yKijX8AcHDFfJOxy1OQt-3" value="Técnico" style="rounded=0;whiteSpace=wrap;html=1;" vertex="1" parent="1">
          <mxGeometry x="650" y="250" width="120" height="60" as="geometry" />
        </mxCell>
        <mxCell id="yKijX8AcHDFfJOxy1OQt-16" value="Registro de solicitud y registro de devolución" style="text;html=1;align=center;verticalAlign=middle;whiteSpace=wrap;rounded=0;" vertex="1" parent="1">
          <mxGeometry x="530" y="230" width="100" height="35" as="geometry" />
        </mxCell>
      </root>
    </mxGraphModel>
  </diagram>
</mxfile>
